<svg width="92" height="90" viewBox="0 0 92 90" fill="none" xmlns="http://www.w3.org/2000/svg" xmlns:xlink="http://www.w3.org/1999/xlink">
<path d="M90.231,45C90.231,69.853 70.032,90 45.116,90C20.199,90 0,69.853 0,45C0,20.147 20.199,0 45.116,0C70.032,0 90.231,20.147 90.231,45Z" fill="#00A0DC"/>
<path d="M70.556,17.406L21.68,17.406C20.571,17.395 19.503,17.823 18.71,18.597C17.917,19.37 17.464,20.425 17.451,21.531L17.451,70.478C17.467,71.583 17.921,72.636 18.714,73.407C19.506,74.178 20.573,74.605 21.68,74.594L70.556,74.594C71.665,74.603 72.732,74.173 73.524,73.399C74.317,72.626 74.77,71.57 74.785,70.464L74.785,21.517C74.765,20.415 74.31,19.364 73.518,18.594C72.726,17.825 71.661,17.398 70.556,17.406Z" fill="#0076B2"/>
<path d="M25.938,38.842L34.449,38.842L34.449,66.156L25.938,66.156L25.938,38.842ZM30.196,25.248C31.172,25.248 32.127,25.537 32.938,26.078C33.75,26.619 34.382,27.388 34.756,28.287C35.129,29.187 35.226,30.177 35.036,31.132C34.845,32.087 34.374,32.964 33.684,33.652C32.993,34.34 32.114,34.808 31.156,34.998C30.199,35.187 29.206,35.089 28.305,34.716C27.403,34.343 26.633,33.711 26.091,32.901C25.549,32.091 25.261,31.139 25.262,30.165C25.263,28.861 25.783,27.61 26.709,26.688C27.634,25.766 28.888,25.248 30.196,25.248ZM39.788,38.842L47.947,38.842L47.947,42.592L48.059,42.592C49.197,40.445 51.969,38.181 56.11,38.181C64.729,38.162 66.326,43.82 66.326,51.156L66.326,66.156L57.816,66.156L57.816,52.867C57.816,49.703 57.759,45.629 53.393,45.629C49.027,45.629 48.285,49.079 48.285,52.661L48.285,66.156L39.788,66.156L39.788,38.842Z" fill="#FFFFFF"/>
</svg>
