<svg width="46" height="46" viewBox="0 0 46 46" fill="none" xmlns="http://www.w3.org/2000/svg" xmlns:xlink="http://www.w3.org/1999/xlink">
<path d="M21.16,33.119C14.536,33.119 9.2,27.783 9.2,21.159C9.2,14.535 14.536,9.199 21.16,9.199C27.784,9.199 33.12,14.535 33.12,21.159C33.12,27.783 27.784,33.119 21.16,33.119ZM21.16,11.039C15.548,11.039 11.04,15.547 11.04,21.159C11.04,26.771 15.548,31.279 21.16,31.279C26.772,31.279 31.28,26.771 31.28,21.159C31.28,15.547 26.772,11.039 21.16,11.039Z" fill="#000000"/>
<path d="M30.067,28.766L38.329,37.027L37.028,38.328L28.767,30.067L30.067,28.766Z" fill="#000000"/>
</svg>
