<svg width="300" height="300" viewBox="0 0 300 300" fill="none" xmlns="http://www.w3.org/2000/svg" xmlns:xlink="http://www.w3.org/1999/xlink">
<path d="M0,20C0,8.954 8.954,0 20,0L300,0L300,280C300,291.046 291.046,300 280,300L20,300C8.954,300 0,291.046 0,280Z" fill="#D9D9D9"/>
<path d="M186,0C186,14.971 188.949,29.795 194.678,43.626C200.407,57.457 208.804,70.024 219.39,80.61C229.976,91.196 242.543,99.593 256.374,105.322C270.205,111.051 285.029,114 300,114L300,0L186,0Z" fill="#FBCD3A" fill-opacity="0.5"/>
<path d="M222,0C222,10.637 224.018,21.17 227.937,30.997C231.857,40.825 237.603,49.754 244.846,57.276C252.089,64.797 260.687,70.764 270.151,74.834C279.614,78.905 289.757,81 300,81L300,0L222,0Z" fill="#FBCD3A" fill-opacity="0.75"/>
</svg>
