<svg width="26" height="24" viewBox="0 0 26 24" fill="none" xmlns="http://www.w3.org/2000/svg" xmlns:xlink="http://www.w3.org/1999/xlink">
<path d="M8.774,22.713C9.535,23.513 10.801,23.544 11.601,22.782C12.401,22.02 12.432,20.754 11.67,19.954L8.774,22.713ZM1.333,12L-0.115,10.621C-0.851,11.393 -0.851,12.607 -0.115,13.38L1.333,12ZM11.67,4.046C12.432,3.246 12.401,1.98 11.601,1.219C10.801,0.457 9.535,0.488 8.774,1.288L11.67,4.046ZM22.666,14C23.771,14 24.666,13.105 24.666,12C24.666,10.896 23.771,10 22.666,10L22.666,14ZM11.67,19.954L2.781,10.621L-0.115,13.38L8.774,22.713L11.67,19.954ZM2.781,13.38L11.67,4.046L8.774,1.288L-0.115,10.621L2.781,13.38ZM1.333,14L22.666,14L22.666,10L1.333,10L1.333,14Z" fill="#000000"/>
</svg>
