<svg width="44" height="46" viewBox="0 0 44 46" fill="none" xmlns="http://www.w3.org/2000/svg" xmlns:xlink="http://www.w3.org/1999/xlink">
<path d="M9.994,43.785L9.994,21.235L4.722,14.837L-0.006,11.287L-0.006,39.805C-0.006,42.007 1.339,43.785 2.994,43.785L9.994,43.785Z" transform="rotate(0 4.994 27.536)" fill="#4285F4"/>
<path d="M33.994,43.785L40.994,43.785C42.654,43.785 43.994,42 43.994,39.805L43.994,11.287L38.639,15.354L33.994,21.235L33.994,43.785Z" transform="rotate(0 38.994 27.536)" fill="#34A853"/>
<path d="M9.993,21.12L9.275,12.31L9.993,3.877L21.993,15.815L33.993,3.877L34.795,11.854L33.993,21.12L21.993,33.058L9.993,21.12Z" transform="rotate(0 22.035 18.468)" fill="#EA4335"/>
<path d="M33.994,3.992L33.994,21.236L43.994,11.288L43.994,5.982C43.994,1.061 39.759,-1.744 36.794,1.207L33.994,3.992Z" transform="rotate(0 38.994 10.619)" fill="#FBBC04"/>
<path d="M-0.006,11.288L4.593,15.863L9.994,21.236L9.994,3.993L7.194,1.207C4.224,-1.744 -0.006,1.061 -0.006,5.982L-0.006,11.288L-0.006,11.288Z" transform="rotate(0 4.994 10.619)" fill="#C5221F"/>
</svg>
