<svg width="48" height="50" viewBox="0 0 48 50" fill="none" xmlns="http://www.w3.org/2000/svg" xmlns:xlink="http://www.w3.org/1999/xlink">
<path d="M11.227,5.67C12.285,4.658 12.44,2.951 11.416,1.904L11.416,1.904C10.563,1.031 9.181,0.93 8.284,1.758C4.011,5.704 1.076,11.096 0.228,17.181C0.038,18.544 1.148,19.694 2.524,19.694L2.524,19.694C3.809,19.694 4.855,18.686 5.062,17.419C5.442,15.101 6.204,12.86 7.321,10.794C8.355,8.882 9.675,7.155 11.227,5.67ZM42.935,17.425C43.144,18.69 44.188,19.694 45.47,19.694L45.47,19.694C46.848,19.694 47.958,18.54 47.764,17.175C46.901,11.098 43.971,5.711 39.72,1.767C38.822,0.935 37.436,1.037 36.583,1.915L36.583,1.915C35.569,2.959 35.723,4.653 36.772,5.661C38.324,7.152 39.644,8.887 40.678,10.804C41.792,12.87 42.553,15.109 42.935,17.425ZM38.443,20.925C38.443,13.975 35.104,8.065 29.211,5.859C28.291,5.515 27.611,4.677 27.611,3.694L27.611,3.694C27.611,1.651 25.998,0.002 24,0.002C22.002,0.002 20.389,1.651 20.389,3.694L20.389,3.694C20.389,4.676 19.709,5.514 18.788,5.857C12.878,8.059 9.557,13.95 9.557,20.925L9.557,29.79C9.557,31.997 8.693,34.116 7.149,35.694L5.241,37.646C4.921,37.973 4.742,38.412 4.742,38.869L4.742,38.869C4.742,39.834 5.525,40.617 6.491,40.617L41.509,40.617C42.475,40.617 43.258,39.834 43.258,38.869L43.258,38.869C43.258,38.412 43.079,37.973 42.759,37.646L40.851,35.694C39.307,34.116 38.443,31.997 38.443,29.79L38.443,20.925ZM24,48.002C24.337,48.002 24.65,47.977 24.963,47.904C26.528,47.559 27.803,46.476 28.429,44.999L28.429,44.999C28.839,43.993 27.91,43.079 26.824,43.079L23.997,43.079C21.334,43.079 19.136,45.693 21.342,47.186C22.103,47.701 23.016,48.002 24,48.002Z" transform="rotate(0 24 24.002)" fill="#8B7777"/>
</svg>
