<svg width="336" height="100" viewBox="0 0 336 100" fill="none" xmlns="http://www.w3.org/2000/svg" xmlns:xlink="http://www.w3.org/1999/xlink">
<path d="M0,20.8C0,20.057 0,19.686 0.01,19.372C0.342,8.819 8.819,0.342 19.372,0.01C19.686,0 20.057,0 20.8,0L315.2,0C315.942,0 316.314,0 316.628,0.01C327.182,0.342 335.658,8.819 335.99,19.372C336,19.686 336,20.057 336,20.8L336,79.2C336,79.943 336,80.314 335.99,80.628C335.658,91.181 327.182,99.658 316.628,99.99C316.314,100 315.942,100 315.2,100L20.8,100C20.057,100 19.686,100 19.372,99.99C8.819,99.658 0.342,91.181 0.01,80.628C0,80.314 0,79.943 0,79.2L0,20.8Z" fill="#134074"/>
</svg>
