<svg width="26" height="24" viewBox="0 0 26 24" fill="none" xmlns="http://www.w3.org/2000/svg" xmlns:xlink="http://www.w3.org/1999/xlink">
<path d="M11.098,1.854C11.697,0.011 14.303,0.011 14.902,1.854L16.368,6.365C16.635,7.189 17.403,7.747 18.27,7.747L23.013,7.747C24.95,7.747 25.756,10.226 24.188,11.365L20.351,14.152C19.65,14.662 19.357,15.564 19.625,16.389L21.09,20.899C21.689,22.742 19.58,24.274 18.013,23.135L14.176,20.348C13.475,19.838 12.525,19.838 11.824,20.348L7.987,23.135C6.42,24.274 4.311,22.742 4.91,20.899L6.375,16.389C6.643,15.564 6.35,14.662 5.649,14.152L1.812,11.365C0.244,10.226 1.05,7.747 2.987,7.747L7.73,7.747C8.597,7.747 9.365,7.189 9.632,6.365L11.098,1.854Z" fill="#E7B53F"/>
</svg>
