<svg width="14" height="12" viewBox="0 0 14 12" fill="none" xmlns="http://www.w3.org/2000/svg" xmlns:xlink="http://www.w3.org/1999/xlink">
<path d="M5.121,9.786C3.609,10.61 1.85,9.203 2.277,7.535L2.277,7.535C2.465,6.802 2.204,6.018 1.608,5.551L1.608,5.551C0.238,4.479 0.901,2.284 2.634,2.148L2.961,2.123C3.691,2.065 4.334,1.62 4.645,0.957L4.675,0.892C5.45,-0.764 7.806,-0.764 8.581,0.892L8.612,0.957C8.922,1.62 9.565,2.065 10.295,2.123L10.622,2.148C12.355,2.284 13.018,4.479 11.649,5.551L11.649,5.551C11.052,6.018 10.791,6.802 10.979,7.535L10.979,7.535C11.406,9.203 9.647,10.61 8.135,9.786L7.679,9.537C7.024,9.181 6.232,9.181 5.577,9.537L5.121,9.786Z" fill="#FBBC04"/>
</svg>
