<svg width="60" height="58" viewBox="0 0 60 58" fill="none" xmlns="http://www.w3.org/2000/svg" xmlns:xlink="http://www.w3.org/1999/xlink">
<path d="M30.087,56.024L29.938,57.516C30.004,57.523 30.071,57.525 30.137,57.523L30.087,56.024ZM28.025,56.024L27.974,57.523C28.036,57.525 28.098,57.523 28.16,57.517L28.025,56.024ZM56.837,28.336L58.337,28.342L58.337,28.336L56.837,28.336ZM30.236,54.531C29.508,54.458 28.662,54.459 27.889,54.53L28.16,57.517C28.762,57.463 29.416,57.464 29.938,57.516L30.236,54.531ZM28.075,54.524C14.01,54.052 2.837,42.529 2.837,28.336L-0.163,28.336C-0.163,44.143 12.289,56.995 27.974,57.523L28.075,54.524ZM2.837,28.336C2.837,13.85 14.543,2.086 29.087,2.086L29.087,-0.914C12.881,-0.914 -0.163,12.197 -0.163,28.336L2.837,28.336ZM29.087,2.086C43.571,2.086 55.337,13.852 55.337,28.336L58.337,28.336C58.337,12.195 45.228,-0.914 29.087,-0.914L29.087,2.086ZM55.337,28.33C55.278,42.529 44.1,54.052 30.037,54.524L30.137,57.523C45.824,56.995 58.271,44.143 58.337,28.342L55.337,28.33Z" transform="rotate(0 29.087 28.305)" fill="#FFFFFF"/>
</svg>
