<svg width="36" height="24" viewBox="0 0 36 24" fill="none" xmlns="http://www.w3.org/2000/svg" xmlns:xlink="http://www.w3.org/1999/xlink">
<path d="M6.141,4.791L5.312,3.541L5.307,3.545L6.141,4.791ZM6.141,17.999L6.976,16.752L6.972,16.75L6.141,17.999ZM28.664,17.999L29.498,19.245L29.498,19.245L28.664,17.999ZM28.664,4.791L27.831,6.039L27.833,6.04L28.664,4.791ZM5.307,3.545C2.274,5.575 0.558,8.395 0.558,11.403C0.558,14.413 2.275,17.228 5.311,19.248L6.972,16.75C4.563,15.147 3.558,13.181 3.558,11.403C3.558,9.625 4.564,7.652 6.976,6.038L5.307,3.545ZM5.307,19.245C8.699,21.515 13.091,22.604 17.403,22.604C21.715,22.604 26.106,21.515 29.498,19.245L27.83,16.752C25.034,18.622 21.258,19.604 17.403,19.604C13.547,19.604 9.771,18.622 6.976,16.752L5.307,19.245ZM29.498,19.245C32.531,17.215 34.248,14.395 34.248,11.387C34.248,8.377 32.53,5.562 29.495,3.542L27.833,6.04C30.242,7.643 31.248,9.609 31.248,11.387C31.248,13.165 30.241,15.138 27.829,16.752L29.498,19.245ZM29.497,3.544C26.115,1.285 21.73,0.203 17.419,0.203C13.109,0.203 8.714,1.286 5.312,3.541L6.97,6.041C9.778,4.18 13.563,3.203 17.419,3.203C21.277,3.203 25.047,4.18 27.831,6.039L29.497,3.544Z" transform="rotate(0 17.403 11.403)" fill="#FFFFFF"/>
</svg>
