<svg width="12" height="12" viewBox="0 0 12 12" fill="none" xmlns="http://www.w3.org/2000/svg" xmlns:xlink="http://www.w3.org/1999/xlink">
<path d="M3.371,9.786C1.859,10.61 0.1,9.203 0.527,7.535L0.527,7.535C0.715,6.802 0.454,6.018 -0.142,5.551L-0.142,5.551C-1.512,4.479 -0.849,2.284 0.884,2.148L1.211,2.123C1.941,2.065 2.584,1.62 2.895,0.957L2.925,0.892C3.7,-0.764 6.056,-0.764 6.831,0.892L6.862,0.957C7.172,1.62 7.815,2.065 8.545,2.123L8.872,2.148C10.605,2.284 11.268,4.479 9.899,5.551L9.899,5.551C9.302,6.018 9.041,6.802 9.229,7.535L9.229,7.535C9.656,9.203 7.897,10.61 6.385,9.786L5.929,9.537C5.274,9.181 4.482,9.181 3.827,9.537L3.371,9.786Z" fill="#FBBC04"/>
</svg>
