<svg width="90" height="56" viewBox="0 0 90 56" fill="none" xmlns="http://www.w3.org/2000/svg" xmlns:xlink="http://www.w3.org/1999/xlink">
<path d="M12.837,9.086L12.008,7.836L12.002,7.839L12.837,9.086ZM12.837,45.773L13.671,44.527L13.668,44.525L12.837,45.773ZM75.399,45.773L76.234,47.02L76.234,47.02L75.399,45.773ZM75.399,9.086L74.566,10.333L74.569,10.335L75.399,9.086ZM12.002,7.839C4.129,13.11 -0.007,20.19 -0.007,27.453C-0.007,34.718 4.13,41.783 12.006,47.022L13.668,44.525C6.418,39.702 2.993,33.485 2.993,27.453C2.993,21.42 6.42,15.187 13.671,10.332L12.002,7.839ZM12.003,47.02C20.895,52.97 32.546,55.898 44.118,55.898C55.69,55.898 67.341,52.97 76.234,47.02L74.565,44.527C66.27,50.077 55.234,52.898 44.118,52.898C33.003,52.898 21.966,50.077 13.671,44.527L12.003,47.02ZM76.234,47.02C84.107,41.749 88.243,34.67 88.243,27.406C88.243,20.142 84.106,13.077 76.23,7.837L74.569,10.335C81.818,15.158 85.243,21.374 85.243,27.406C85.243,33.44 81.817,39.672 74.565,44.527L76.234,47.02ZM76.233,7.839C67.371,1.92 55.735,-0.992 44.165,-0.992C32.594,-0.992 20.93,1.92 12.008,7.836L13.666,10.336C21.994,4.814 33.048,2.008 44.165,2.008C55.282,2.008 66.303,4.814 74.566,10.333L76.233,7.839Z" transform="rotate(0 44.118 27.453)" fill="#FFFFFF"/>
</svg>
