<svg width="38" height="36" viewBox="0 0 38 36" fill="none" xmlns="http://www.w3.org/2000/svg" xmlns:xlink="http://www.w3.org/1999/xlink">
<path d="M17.948,1.334L18.856,0.914C18.692,0.56 18.338,0.334 17.948,0.334C17.558,0.334 17.204,0.56 17.041,0.914L17.948,1.334ZM23.135,12.547L22.227,12.967C22.373,13.283 22.672,13.5 23.017,13.54L23.135,12.547ZM35.43,14.002L36.108,14.737C36.395,14.473 36.501,14.065 36.381,13.694C36.261,13.322 35.935,13.055 35.547,13.009L35.43,14.002ZM26.34,22.386L25.662,21.651C25.406,21.887 25.291,22.239 25.359,22.581L26.34,22.386ZM28.753,34.499L28.265,35.372C28.606,35.562 29.026,35.537 29.341,35.308C29.656,35.078 29.81,34.686 29.733,34.304L28.753,34.499ZM17.948,28.467L18.436,27.594C18.133,27.425 17.764,27.425 17.461,27.594L17.948,28.467ZM7.144,34.501L6.163,34.305C6.087,34.688 6.24,35.08 6.556,35.309C6.871,35.539 7.291,35.564 7.631,35.374L7.144,34.501ZM9.557,22.387L10.537,22.583C10.606,22.241 10.491,21.889 10.235,21.652L9.557,22.387ZM0.467,14.001L0.349,13.008C-0.038,13.053 -0.364,13.321 -0.484,13.692C-0.605,14.063 -0.498,14.471 -0.211,14.736L0.467,14.001ZM12.763,12.546L12.881,13.539C13.226,13.498 13.525,13.281 13.671,12.965L12.763,12.546ZM17.041,1.754L22.227,12.967L24.043,12.128L18.856,0.914L17.041,1.754ZM23.017,13.54L35.312,14.995L35.547,13.009L23.252,11.554L23.017,13.54ZM34.752,13.267L25.662,21.651L27.018,23.121L36.108,14.737L34.752,13.267ZM25.359,22.581L27.772,34.694L29.733,34.304L27.321,22.19L25.359,22.581ZM29.24,33.626L18.436,27.594L17.461,29.34L28.265,35.372L29.24,33.626ZM17.461,27.594L6.656,33.628L7.631,35.374L18.436,29.34L17.461,27.594ZM8.125,34.696L10.537,22.583L8.576,22.192L6.163,34.305L8.125,34.696ZM10.235,21.652L1.145,13.266L-0.211,14.736L8.879,23.122L10.235,21.652ZM0.584,14.994L12.881,13.539L12.646,11.553L0.349,13.008L0.584,14.994ZM13.671,12.965L18.856,1.754L17.041,0.914L11.856,12.126L13.671,12.965Z" fill="#000000" fill-opacity="0.5"/>
</svg>
