<svg width="28" height="20" viewBox="0 0 28 20" fill="none" xmlns="http://www.w3.org/2000/svg" xmlns:xlink="http://www.w3.org/1999/xlink">
<path d="M4.424,1.95C3.291,0.74 1.393,0.678 0.183,1.81C-1.026,2.943 -1.088,4.841 0.044,6.05L4.424,1.95ZM14.406,17L12.216,19.05C12.816,19.691 13.665,20.036 14.541,19.997C15.417,19.958 16.232,19.537 16.771,18.846L14.406,17ZM26.915,5.846C27.934,4.539 27.701,2.654 26.395,1.635C25.089,0.616 23.204,0.848 22.185,2.154L26.915,5.846ZM0.044,6.05L12.216,19.05L16.596,14.95L4.424,1.95L0.044,6.05ZM16.771,18.846L26.915,5.846L22.185,2.154L12.041,15.154L16.771,18.846Z" fill="#000000"/>
</svg>
