<svg width="24" height="22" viewBox="0 0 24 22" fill="none" xmlns="http://www.w3.org/2000/svg" xmlns:xlink="http://www.w3.org/1999/xlink">
    <path d="M11.391,20.489L11.242,21.981C11.308,21.988 11.375,21.99 11.442,21.988L11.391,20.489ZM10.649,20.489L10.598,21.988C10.66,21.99 10.723,21.988 10.785,21.983L10.649,20.489ZM21.021,10.521L22.521,10.528L22.521,10.521L21.021,10.521ZM11.541,18.996C11.212,18.963 10.846,18.965 10.513,18.995L10.785,21.983C10.946,21.968 11.121,21.969 11.242,21.981L11.541,18.996ZM10.699,18.99C6.155,18.837 2.541,15.115 2.541,10.521L-0.459,10.521C-0.459,16.728 4.433,21.781 10.598,21.988L10.699,18.99ZM2.541,10.521C2.541,5.835 6.327,2.031 11.031,2.031L11.031,-0.969C4.666,-0.969 -0.459,4.183 -0.459,10.521L2.541,10.521ZM11.031,2.031C15.715,2.031 19.521,5.837 19.521,10.521L22.521,10.521C22.521,4.18 17.372,-0.969 11.031,-0.969L11.031,2.031ZM19.521,10.515C19.502,15.114 15.884,18.837 11.341,18.99L11.442,21.988C17.608,21.781 22.495,16.728 22.521,10.528L19.521,10.515Z" transform="rotate(0 11.031 10.51)" fill="#FFFFFF"/>
</svg>
