<svg width="28" height="28" viewBox="0 0 28 28" fill="none" xmlns="http://www.w3.org/2000/svg" xmlns:xlink="http://www.w3.org/1999/xlink">
<path d="M25.531,22.897C25.88,23.247 26.077,23.721 26.077,24.216C26.077,24.711 25.88,25.185 25.531,25.535C25.181,25.885 24.706,26.082 24.211,26.082C23.717,26.082 23.242,25.885 22.892,25.535L13.04,15.68L3.184,25.532C2.835,25.882 2.36,26.078 1.865,26.078C1.371,26.078 0.896,25.882 0.546,25.532C0.197,25.182 0,24.708 0,24.213C0,23.718 0.197,23.244 0.546,22.894L10.402,13.042L0.549,3.186C0.2,2.836 0.003,2.362 0.003,1.867C0.003,1.372 0.2,0.898 0.549,0.548C0.899,0.198 1.374,0.002 1.869,0.002C2.363,0.002 2.838,0.198 3.188,0.548L13.04,10.403L22.896,0.546C23.245,0.197 23.72,0 24.215,0C24.709,0 25.184,0.197 25.534,0.546C25.883,0.896 26.08,1.371 26.08,1.865C26.08,2.36 25.883,2.835 25.534,3.184L15.678,13.042L25.531,22.897Z" fill="#FFFFFF"/>
</svg>
