<svg width="36" height="46" viewBox="0 0 36 46" fill="none" xmlns="http://www.w3.org/2000/svg" xmlns:xlink="http://www.w3.org/1999/xlink">
<path d="M9.763,0.188C10.56,0.188 11.295,0.716 11.682,1.567L14.368,7.472C14.719,8.245 14.736,9.18 14.412,9.971L14.412,9.971C12.72,14.103 11.959,18.793 14.209,22.649C14.636,23.38 15.133,24.117 15.712,24.824C16.276,25.512 16.863,26.106 17.446,26.617C20.367,29.176 24.549,28.419 27.864,26.396L27.864,26.396C28.513,26 29.279,26.02 29.913,26.45L34.764,29.743C35.461,30.216 35.892,31.112 35.892,32.085L35.892,38.884C35.892,42.346 33.258,44.847 30.571,43.74C25.052,41.466 16.485,37.138 11.055,30.509C5.625,23.88 2.079,13.421 0.217,6.684C-0.689,3.403 1.359,0.188 4.195,0.188L9.763,0.188Z" transform="rotate(0 17.946 22.096)" fill="#2F88FF"/>
</svg>
