<svg width="14" height="10" viewBox="0 0 14 10" fill="none" xmlns="http://www.w3.org/2000/svg" xmlns:xlink="http://www.w3.org/1999/xlink">
<path d="M7.767,2.896C7.495,2.319 6.628,2.513 6.628,3.152L6.628,6.086C6.628,6.488 6.846,6.858 7.198,7.052L7.392,7.159C8.163,7.584 9.066,6.867 8.849,6.013L8.849,6.013C8.755,5.64 8.888,5.241 9.192,5.004L9.192,5.004C9.889,4.459 9.554,3.341 8.672,3.27L8.261,3.237C8.047,3.22 7.859,3.09 7.767,2.896L7.767,2.896ZM5.121,9.442C3.609,10.266 1.85,8.859 2.277,7.191L2.277,7.191C2.465,6.458 2.204,5.674 1.608,5.208L1.608,5.208C0.238,4.136 0.901,1.94 2.634,1.805L2.961,1.779C3.691,1.722 4.334,1.276 4.645,0.613L4.675,0.549C5.45,-1.108 7.806,-1.108 8.581,0.549L8.612,0.613C8.922,1.276 9.565,1.722 10.295,1.779L10.622,1.805C12.355,1.94 13.018,4.136 11.649,5.208L11.649,5.208C11.052,5.674 10.791,6.458 10.979,7.191L10.979,7.191C11.406,8.859 9.647,10.266 8.135,9.442L7.679,9.194C7.024,8.837 6.232,8.837 5.577,9.194L5.121,9.442Z" fill="#FBBC04"/>
</svg>
