<svg width="42" height="32" viewBox="0 0 42 32" fill="none" xmlns="http://www.w3.org/2000/svg" xmlns:xlink="http://www.w3.org/1999/xlink">
<path d="M2.324,30.907L38.324,30.907C38.689,30.906 39.046,30.806 39.358,30.617C39.669,30.427 39.923,30.157 40.093,29.834C40.262,29.511 40.34,29.149 40.319,28.785C40.297,28.421 40.177,28.07 39.97,27.769L21.97,1.769C21.224,0.691 19.428,0.691 18.68,1.769L0.68,27.769C0.472,28.069 0.35,28.42 0.327,28.785C0.304,29.149 0.382,29.513 0.551,29.837C0.721,30.16 0.976,30.431 1.288,30.62C1.601,30.808 1.959,30.908 2.324,30.907Z" transform="rotate(180 20.323 15.934)" fill="#000000"/>
</svg>
